<svg xmlns="http://www.w3.org/2000/svg" viewBox="0 0 90 90"><defs><style>.cls-1{fill:#fff;}.cls-2{fill:#1d1d1d;}.cls-3{fill:none;stroke:#1d1d1d;stroke-miterlimit:10;stroke-width:2px;}</style></defs><title>css</title><g id="Warstwa_2" data-name="Warstwa 2"><g id="Warstwa_1-2" data-name="Warstwa 1"><rect class="cls-1" width="90" height="90"/><path class="cls-2" d="M39.66,19.2a4.49,4.49,0,0,1-4.44,3c-2.61,0-4.81-1.71-4.81-5.14,0-3.1,1.92-5.32,4.89-5.32a4.29,4.29,0,0,1,4.27,3l-1.69.42a2.73,2.73,0,0,0-2.6-2c-1.64,0-2.88,1.36-2.88,3.82,0,2.89,1.54,3.78,2.89,3.78a2.82,2.82,0,0,0,2.72-2Z"/><path class="cls-2" d="M47.81,14.54a4.41,4.41,0,0,0-3.08-1.37c-1.2,0-2.11.51-2.11,1.44s1.2,1.17,2.69,1.42c1.75.29,3.84.78,3.84,3,0,1.82-1.45,3.21-4.13,3.21a6.23,6.23,0,0,1-4.61-1.8l1.08-1.13A5,5,0,0,0,45,20.77c1.29,0,2.29-.47,2.29-1.5,0-1.25-1.5-1.36-2.82-1.58-1.78-.3-3.71-.8-3.71-2.84,0-1.75,1.4-3.11,3.87-3.11a6,6,0,0,1,4.25,1.65Z"/><path class="cls-2" d="M57.56,14.54a4.46,4.46,0,0,0-3.09-1.37c-1.19,0-2.11.51-2.11,1.44s1.21,1.17,2.7,1.42c1.75.29,3.83.78,3.83,3,0,1.82-1.44,3.21-4.13,3.21a6.25,6.25,0,0,1-4.61-1.8l1.08-1.13a5.07,5.07,0,0,0,3.53,1.5c1.3,0,2.3-.47,2.3-1.5,0-1.25-1.5-1.36-2.82-1.58-1.78-.3-3.72-.8-3.72-2.84,0-1.75,1.41-3.11,3.87-3.11a6,6,0,0,1,4.25,1.65Z"/><polygon class="cls-3" points="21.09 27.64 68.91 27.64 68.91 66.55 45.45 82.77 21.09 66.55 21.09 27.64"/><line class="cls-3" x1="45" y1="83.17" x2="45" y2="27.23"/></g></g></svg>