<svg xmlns="http://www.w3.org/2000/svg" viewBox="0 0 90 90"><defs><style>.cls-1{fill:#fff;}.cls-2{fill:#1d1d1d;}.cls-3{fill:none;stroke:#1d1d1d;stroke-miterlimit:10;stroke-width:2px;}</style></defs><title>figma_1</title><g id="Warstwa_2" data-name="Warstwa 2"><g id="Warstwa_1-2" data-name="Warstwa 1"><rect class="cls-1" width="90" height="90"/><path class="cls-2" d="M29.31,70.12H25.07v4.31H23.22V64.49h6.85V66h-5v2.71h4.24Z"/><path class="cls-2" d="M31.7,74.43V64.49h1.86v9.94Z"/><path class="cls-2" d="M44.54,74.43H43.31l-.06-1.31h0a3.28,3.28,0,0,1-3.08,1.57c-2.76,0-4.76-1.78-4.76-5.11,0-3.06,1.74-5.35,4.88-5.35a4.15,4.15,0,0,1,4.2,2.86l-1.68.46a2.67,2.67,0,0,0-2.53-1.89c-1.6,0-2.89,1.23-2.89,3.85s1.51,3.75,2.94,3.75a2.47,2.47,0,0,0,2.59-2.52H40.37V69.4h4.19l0,1.3Z"/><path class="cls-2" d="M46.56,73.12V65.8l0-1.31h2.62l2.71,7.09h0l2.69-7.09h2.53v9.94H55.27l0-1.31V67.55l0-1h0l-2.91,7.83H51.13L48.2,66.6h0l0,1v6.88H46.54Z"/><path class="cls-2" d="M60.14,74.43H58.4L62,64.49h2.1l3.58,9.94h-2l-.86-2.62H61Zm1.36-4h2.88L63,66.13h0Z"/><circle class="cls-3" cx="50.41" cy="38.78" r="4.76"/><path class="cls-3" d="M50.41,33.15H40a4.77,4.77,0,0,1-4.76-4.76h0A4.77,4.77,0,0,1,40,23.63H50.41a4.78,4.78,0,0,1,4.77,4.76h0A4.78,4.78,0,0,1,50.41,33.15Z"/><path class="cls-3" d="M44.78,34H40a4.77,4.77,0,0,0,0,9.53h4.76Z"/><path class="cls-3" d="M39.73,44.41h0a5,5,0,1,0,5,5.41l0,0V44.41Z"/></g></g></svg>