<svg xmlns="http://www.w3.org/2000/svg" viewBox="0 0 404.7 223.03"><defs><style>.cls-1{font-size:73.72px;fill:#1d1d1d;font-family:FranklinGothicATF-Medium, Franklin Gothic ATF;font-weight:500;}.cls-2{letter-spacing:-0.03em;}.cls-3{fill:none;stroke:#1d1d1d;stroke-miterlimit:10;stroke-width:9px;}</style></defs><title>figma</title><g id="Warstwa_2" data-name="Warstwa 2"><g id="Warstwa_1-2" data-name="Warstwa 1"><text class="cls-1" transform="translate(162.36 117.88)">FIGM<tspan class="cls-2" x="192.19" y="0">A</tspan></text><circle class="cls-3" cx="99.28" cy="96.65" r="28.96"/><path class="cls-3" d="M99.28,62.42H36.09a29,29,0,0,1-29-29h0a29,29,0,0,1,29-29H99.28a29.05,29.05,0,0,1,29,29h0A29.05,29.05,0,0,1,99.28,62.42Z"/><path class="cls-3" d="M65.06,67.69h-29a29,29,0,0,0,0,57.92h29Z"/><path class="cls-3" d="M34.34,130.88h0a30.28,30.28,0,1,0,30.59,32.89l.12.13v-33Z"/></g></g></svg>