<svg xmlns="http://www.w3.org/2000/svg" viewBox="0 0 90 90"><defs><style>.cls-1{fill:#fff;}.cls-2{fill:#1d1d1d;}.cls-3{fill:none;stroke:#1d1d1d;stroke-miterlimit:10;stroke-width:2px;}</style></defs><title>fire_1</title><g id="Warstwa_2" data-name="Warstwa 2"><g id="Warstwa_1-2" data-name="Warstwa 1"><rect class="cls-1" width="90" height="90"/><path class="cls-2" d="M16.47,69.75H12.23v3l0,1.31H10.38l0-1.31V65.42l0-1.3h6.86v1.46h-5v2.71h4.24Z"/><path class="cls-2" d="M18.86,74.06V64.12h1.86v9.94Z"/><path class="cls-2" d="M29.31,74.06l-2-3.94H25.1v3.94H23.24V64.12h4.34c1.57,0,3.75.4,3.75,3a2.79,2.79,0,0,1-2.2,2.82L31.5,74v0ZM25.1,68.71h2.06c1.05,0,2.26-.19,2.26-1.59s-1.21-1.58-2.29-1.58h-2Z"/><path class="cls-2" d="M39.5,69.75H35.07V72.6h5.47v1.46H33.22V64.12H40.5v1.46H35.07v2.71H39.5Z"/><path class="cls-2" d="M42.29,65.42v-1.3h4.29c2,0,3.9.58,3.9,2.47a2.4,2.4,0,0,1-2.13,2.32V69a2.56,2.56,0,0,1,2.42,2.5c0,2-1.84,2.59-3.69,2.59H42.28V65.42Zm1.84,2.91h2.28c1.3,0,2.19-.47,2.19-1.5s-.72-1.36-2-1.36H44.13Zm0,1.36v3h2.79c1.36,0,1.89-.59,1.89-1.43,0-1.21-1.1-1.6-2.4-1.6Z"/><path class="cls-2" d="M53.09,74.06H51.35L55,64.12h2.1l3.57,9.94h-2l-.86-2.62H54Zm1.36-4h2.88l-1.4-4.28h0Z"/><path class="cls-2" d="M68.46,66.66a4.37,4.37,0,0,0-3.08-1.37c-1.2,0-2.12.51-2.12,1.44s1.21,1.17,2.7,1.42c1.75.29,3.84.78,3.84,3,0,1.82-1.45,3.21-4.13,3.21a6.24,6.24,0,0,1-4.62-1.81l1.09-1.12a5,5,0,0,0,3.53,1.5c1.29,0,2.29-.47,2.29-1.5,0-1.25-1.5-1.36-2.82-1.59-1.78-.29-3.71-.79-3.71-2.83,0-1.75,1.4-3.12,3.86-3.12a6,6,0,0,1,4.26,1.66Z"/><path class="cls-2" d="M77.82,69.75H73.38V72.6h5.48v1.46H71.53l0-1.31V65.42l0-1.3h7.29v1.46H73.38v2.71h4.44Z"/><path class="cls-3" d="M32.76,47.16,54.47,26.9l3.41,20.45L44.73,54.17,32.81,47.56A.25.25,0,0,1,32.76,47.16Z"/><path class="cls-3" d="M42.58,29l-5.89-9.21L32.14,46.92a.07.07,0,0,0,.14,0L45,24.7l4,7.22"/></g></g></svg>