<svg xmlns="http://www.w3.org/2000/svg" viewBox="0 0 90 90"><defs><style>.cls-1{fill:#fff;}.cls-2{fill:#1d1d1d;}.cls-3{fill:none;}.cls-3,.cls-4{stroke:#1d1d1d;stroke-miterlimit:10;stroke-width:2px;}.cls-4{fill:#fcfcfc;}</style></defs><title>git_1</title><g id="Warstwa_2" data-name="Warstwa 2"><g id="Warstwa_1-2" data-name="Warstwa 1"><rect class="cls-1" width="90" height="90"/><path class="cls-2" d="M43.15,74.25H41.91l0-1.31h0a3.28,3.28,0,0,1-3.09,1.58C36,74.52,34,72.74,34,69.4c0-3.06,1.74-5.35,4.88-5.35a4.17,4.17,0,0,1,4.2,2.86l-1.69.46a2.66,2.66,0,0,0-2.53-1.89c-1.6,0-2.89,1.24-2.89,3.85,0,2.77,1.52,3.75,2.95,3.75a2.47,2.47,0,0,0,2.59-2.51H39V69.22h4.18v5Z"/><path class="cls-2" d="M45.15,74.25V64.31H47v9.94Z"/><path class="cls-2" d="M53.43,65.77v7.17l0,1.31H51.58l0-1.31V65.77H48.51V64.31h8v1.46Z"/><rect class="cls-3" x="30.76" y="20.76" width="28.49" height="28.49" transform="translate(-11.57 42.07) rotate(-45)"/><line class="cls-3" x1="40.4" y1="19.74" x2="53.74" y2="33.07"/><line class="cls-3" x1="44.4" y1="23.74" x2="44.4" y2="45.74"/><circle class="cls-4" cx="44.4" cy="25.07" r="2.67"/><circle class="cls-4" cx="44.4" cy="46.41" r="2.67"/><circle class="cls-4" cx="53.74" cy="33.07" r="2.67"/></g></g></svg>