<svg xmlns="http://www.w3.org/2000/svg" viewBox="0 0 90 90"><defs><style>.cls-1{fill:#fff;}.cls-2{fill:#1d1d1d;}.cls-3{fill:none;stroke:#1d1d1d;stroke-miterlimit:10;stroke-width:2px;}</style></defs><title>html</title><g id="Warstwa_2" data-name="Warstwa 2"><g id="Warstwa_1-2" data-name="Warstwa 1"><rect class="cls-1" width="90" height="90"/><path class="cls-2" d="M32.29,21.94V17.6H27.4v4.34H25.55V12h1.86v4.14h4.9V12h1.85l0,1.31v7.32l0,1.31Z"/><path class="cls-2" d="M40.57,13.46v7.17l0,1.31H38.72l0-1.31V13.46H35.65V12h8v1.46Z"/><path class="cls-2" d="M45.17,20.63V12h2.61l2.71,7.09h0L53.21,12h2.53l0,1.31v7.32l0,1.31H53.89V15.06l0-1h0L51,21.94H49.75l-2.94-7.83h0l0,1v5.57l0,1.31H45.16Z"/><path class="cls-2" d="M58.25,21.94l0-1.31V13.31l0-1.31h1.87l0,1.31v7.17h5v1.46Z"/><polygon class="cls-3" points="21.09 27.64 68.91 27.64 68.91 66.55 45.45 82.77 21.09 66.55 21.09 27.64"/><line class="cls-3" x1="45" y1="83.17" x2="45" y2="27.23"/></g></g></svg>