<svg xmlns="http://www.w3.org/2000/svg" viewBox="0 0 90 90"><defs><style>.cls-1{fill:#fff;}.cls-2{fill:#1d1d1d;}.cls-3{fill:none;stroke:#1d1d1d;stroke-miterlimit:10;stroke-width:2px;}</style></defs><title>js</title><g id="Warstwa_2" data-name="Warstwa 2"><g id="Warstwa_1-2" data-name="Warstwa 1"><rect class="cls-1" width="90" height="90"/><path class="cls-2" d="M37.27,20.49a4.3,4.3,0,0,0,.92.11c1.2,0,1.52-.64,1.52-2V12h1.86v7.13c0,2.38-1.5,3-3.09,3A3.91,3.91,0,0,1,37.27,22Z"/><path class="cls-2" d="M50.5,14.54a4.43,4.43,0,0,0-3.08-1.37c-1.2,0-2.12.51-2.12,1.44S46.51,15.78,48,16c1.75.29,3.83.78,3.83,3,0,1.82-1.44,3.21-4.12,3.21a6.28,6.28,0,0,1-4.62-1.8l1.09-1.13a5,5,0,0,0,3.53,1.5c1.29,0,2.29-.47,2.29-1.5,0-1.25-1.5-1.36-2.82-1.58-1.78-.3-3.71-.8-3.71-2.84,0-1.75,1.4-3.11,3.86-3.11a6,6,0,0,1,4.25,1.65Z"/><polygon class="cls-3" points="21.09 27.64 68.91 27.64 68.91 66.55 45.45 82.77 21.09 66.55 21.09 27.64"/><line class="cls-3" x1="45" y1="83.17" x2="45" y2="27.23"/></g></g></svg>