<svg xmlns="http://www.w3.org/2000/svg" viewBox="0 0 90 90"><defs><style>.cls-1{fill:#fff;}.cls-2{fill:#1d1d1d;}</style></defs><title>ps</title><g id="Warstwa_2" data-name="Warstwa 2"><g id="Warstwa_1-2" data-name="Warstwa 1"><rect class="cls-1" width="90" height="90"/><path class="cls-2" d="M77,13V77H13V13H77m3-3H10V80H80V10Z"/><path class="cls-2" d="M32,46.47v6l0,2.92H29.13l0-2.92V36.11l0-2.92h9.18c3.39,0,8,.65,8,6.5,0,5.66-4.36,6.78-8,6.78ZM32,44h6c2.89,0,5.32-.56,5.32-4.27s-2.62-4.1-5.32-4.1H32Z"/><path class="cls-2" d="M50,51.36a8.14,8.14,0,0,0,5.66,2.43c1.93,0,4.07-.75,4.07-2.65S57.23,49,55.2,48.68c-2.7-.37-6.28-.93-6.28-4.38,0-2.62,2.08-4.89,6.07-4.89a9.37,9.37,0,0,1,6.72,2.74L60.12,43.8a7.17,7.17,0,0,0-4.95-2.24c-1.77,0-3.73.78-3.73,2.46s2.05,1.92,4.23,2.2c2.58.32,6.53.88,6.53,4.67,0,2.74-2.11,5-6.5,5a9.64,9.64,0,0,1-7.34-3Z"/></g></g></svg>