<svg xmlns="http://www.w3.org/2000/svg" viewBox="0 0 90 90"><defs><style>.cls-1{fill:#fff;}.cls-2{fill:#1d1d1d;}.cls-3{fill:none;stroke:#000;stroke-miterlimit:10;stroke-width:2px;}</style></defs><title>react_1</title><g id="Warstwa_2" data-name="Warstwa 2"><g id="Warstwa_1-2" data-name="Warstwa 1"><rect class="cls-1" width="90" height="90"/><path class="cls-2" d="M29.24,74.69l-2-3.94H25v2.63l0,1.31H23.16l0-1.31V66.05l0-1.3H27.5c1.57,0,3.75.4,3.75,3a2.79,2.79,0,0,1-2.19,2.82l2.36,4.13v0ZM25,69.33h2.06c1.06,0,2.27-.18,2.27-1.58s-1.21-1.58-2.3-1.58H25Z"/><path class="cls-2" d="M39.42,70.38H35v2.85h5.48v1.46H33.14l0-1.31V66.05l0-1.3h7.29v1.46H35v2.71h4.43Z"/><path class="cls-2" d="M42.88,74.69H41.15l3.61-9.94h2.1l3.57,9.94h-2l-.86-2.62H43.77Zm1.37-4h2.87l-1.4-4.28h0Z"/><path class="cls-2" d="M60.2,72a4.48,4.48,0,0,1-4.43,3C53.16,75,51,73.24,51,69.81c0-3.1,1.92-5.33,4.89-5.33a4.3,4.3,0,0,1,4.27,3l-1.69.42a2.73,2.73,0,0,0-2.6-2c-1.64,0-2.88,1.36-2.88,3.82,0,2.89,1.54,3.78,2.89,3.78a2.82,2.82,0,0,0,2.72-2Z"/><path class="cls-2" d="M65.65,66.21v7.17l0,1.31H63.8l0-1.31V66.21H60.73V64.75h8v1.46Z"/><ellipse class="cls-3" cx="45" cy="36.4" rx="21.52" ry="8.17" transform="translate(-9.03 57.17) rotate(-60)"/><ellipse class="cls-3" cx="44.61" cy="36.21" rx="8.17" ry="21.52" transform="translate(-12 26.37) rotate(-29.2)"/><ellipse class="cls-3" cx="45" cy="36.21" rx="21.52" ry="8.17"/><circle class="cls-3" cx="44.97" cy="36.49" r="2.84"/></g></g></svg>