<svg xmlns="http://www.w3.org/2000/svg" viewBox="0 0 90 90"><defs><style>.cls-1{fill:#fff;}.cls-2{fill:#1d1d1d;}</style></defs><title>sass</title><g id="Warstwa_2" data-name="Warstwa 2"><g id="Warstwa_1-2" data-name="Warstwa 1"><rect class="cls-1" width="90" height="90"/><path class="cls-2" d="M33.34,42.29a4.41,4.41,0,0,0-3.09-1.37c-1.19,0-2.11.51-2.11,1.44s1.21,1.17,2.69,1.42c1.76.29,3.84.78,3.84,3,0,1.82-1.44,3.21-4.13,3.21a6.19,6.19,0,0,1-4.61-1.81L27,47a5.07,5.07,0,0,0,3.53,1.5c1.3,0,2.3-.47,2.3-1.5,0-1.25-1.5-1.36-2.83-1.59-1.77-.29-3.71-.79-3.71-2.83,0-1.75,1.41-3.12,3.87-3.12a6,6,0,0,1,4.25,1.66Z"/><path class="cls-2" d="M36.92,49.69H35.19l3.61-9.94h2.1l3.57,9.94h-2l-.86-2.62H37.81Zm1.37-4h2.87l-1.4-4.28h0Z"/><path class="cls-2" d="M52.3,42.29a4.41,4.41,0,0,0-3.09-1.37c-1.19,0-2.11.51-2.11,1.44s1.21,1.17,2.69,1.42c1.76.29,3.84.78,3.84,3,0,1.82-1.44,3.21-4.13,3.21a6.19,6.19,0,0,1-4.61-1.81L46,47a5.07,5.07,0,0,0,3.53,1.5c1.3,0,2.3-.47,2.3-1.5,0-1.25-1.51-1.36-2.83-1.59-1.78-.29-3.71-.79-3.71-2.83,0-1.75,1.41-3.12,3.87-3.12a6,6,0,0,1,4.25,1.66Z"/><path class="cls-2" d="M62,42.29A4.41,4.41,0,0,0,59,40.92c-1.19,0-2.11.51-2.11,1.44s1.21,1.17,2.7,1.42c1.75.29,3.83.78,3.83,3,0,1.82-1.44,3.21-4.12,3.21a6.22,6.22,0,0,1-4.62-1.81L55.72,47a5,5,0,0,0,3.53,1.5c1.29,0,2.29-.47,2.29-1.5,0-1.25-1.5-1.36-2.82-1.59C56.94,45.14,55,44.64,55,42.6c0-1.75,1.4-3.12,3.86-3.12a6,6,0,0,1,4.25,1.66Z"/></g></g></svg>