<svg xmlns="http://www.w3.org/2000/svg" viewBox="0 0 90 90"><defs><style>.cls-1{fill:#fff;}.cls-2{fill:#1d1d1d;}</style></defs><title>xd</title><g id="Warstwa_2" data-name="Warstwa 2"><g id="Warstwa_1-2" data-name="Warstwa 1"><rect class="cls-1" width="90" height="90"/><path class="cls-2" d="M77,13V77H13V13H77m3-3H10V80H80V10Z"/><path class="cls-2" d="M35.44,45.82,29,55.43H25.46v-.06l8.4-11.54L26.11,33.25v-.06h3.61l5.91,8.43,5.76-8.43h3.45v.06L37.22,43.61l8.55,11.76v.06H42.1Z"/><path class="cls-2" d="M46.89,47.66c0-4.95,3-8.19,7.1-8.19a5.45,5.45,0,0,1,5.13,3.15h.06V35.93l0-2.74h2.74l0,2.74V52.76l0,2.67H59.28V52.54h-.07A5.48,5.48,0,0,1,54,55.87C49.94,55.87,46.89,52.63,46.89,47.66Zm2.8,0c0,3.54,1.62,6,4.61,6,2.55,0,5-1.77,5-5.88v-.12c0-3.86-2.18-5.92-5-5.92C51.4,41.71,49.69,44,49.69,47.63Z"/></g></g></svg>